<?xml version="1.0" encoding="UTF-8" standalone="no"?><svg xmlns="http://www.w3.org/2000/svg" xmlns:xlink="http://www.w3.org/1999/xlink" contentStyleType="text/css" height="1036px" preserveAspectRatio="none" style="width:2206px;height:1036px;background:#FFFFFF;" version="1.1" viewBox="0 0 2206 1036" width="2206.4px" zoomAndPan="magnify"><defs/><g><rect fill="#DDDDDD" height="1026.7313" style="stroke:#181818;stroke-width:0.4000000000000001;" width="216.8" x="206" y="4.8"/><text fill="#000000" font-family="sans-serif" font-size="10.4" font-weight="bold" lengthAdjust="spacing" textLength="79.2" x="274.8" y="15.5961">Parser Services</text><rect fill="#DDDDDD" height="1026.7313" style="stroke:#181818;stroke-width:0.4000000000000001;" width="610.4" x="788.4" y="4.8"/><text fill="#000000" font-family="sans-serif" font-size="10.4" font-weight="bold" lengthAdjust="spacing" textLength="137.6" x="1024.8" y="15.5961">Value Chain View Services</text><rect fill="#DDDDDD" height="1026.7313" style="stroke:#181818;stroke-width:0.4000000000000001;" width="316" x="1717.2" y="4.8"/><text fill="#000000" font-family="sans-serif" font-size="10.4" font-weight="bold" lengthAdjust="spacing" textLength="156" x="1797.2" y="15.5961">Log Information View Services</text><rect height="319.8063" style="stroke:#000000;stroke-width:1.2000000000000002;fill:none;" width="616.4" x="16" y="99.9688"/><rect height="443.225" style="stroke:#000000;stroke-width:1.2000000000000002;fill:none;" width="1930.8" x="107.2" y="430.975"/><rect height="68.0438" style="stroke:#000000;stroke-width:1.2000000000000002;fill:none;" width="2094.8" x="107.2" y="885.4"/><line style="stroke:#181818;stroke-width:0.4000000000000001;fill:none;stroke-dasharray:5.0,5.0;" x1="37.6" x2="37.6" y1="66.0875" y2="967.0438"/><line style="stroke:#181818;stroke-width:0.4000000000000001;fill:none;stroke-dasharray:5.0,5.0;" x1="130.4" x2="130.4" y1="66.0875" y2="967.0438"/><line style="stroke:#181818;stroke-width:0.4000000000000001;fill:none;stroke-dasharray:5.0,5.0;" x1="259.6" x2="259.6" y1="66.0875" y2="967.0438"/><line style="stroke:#181818;stroke-width:0.4000000000000001;fill:none;stroke-dasharray:5.0,5.0;" x1="368.4" x2="368.4" y1="66.0875" y2="967.0438"/><line style="stroke:#181818;stroke-width:0.4000000000000001;fill:none;stroke-dasharray:5.0,5.0;" x1="487.6" x2="487.6" y1="66.0875" y2="967.0438"/><line style="stroke:#181818;stroke-width:0.4000000000000001;fill:none;stroke-dasharray:5.0,5.0;" x1="590" x2="590" y1="66.0875" y2="967.0438"/><line style="stroke:#181818;stroke-width:0.4000000000000001;fill:none;stroke-dasharray:5.0,5.0;" x1="707.6" x2="707.6" y1="66.0875" y2="967.0438"/><line style="stroke:#181818;stroke-width:0.4000000000000001;fill:none;stroke-dasharray:5.0,5.0;" x1="870" x2="870" y1="66.0875" y2="967.0438"/><line style="stroke:#181818;stroke-width:0.4000000000000001;fill:none;stroke-dasharray:5.0,5.0;" x1="1039.6" x2="1039.6" y1="66.0875" y2="967.0438"/><line style="stroke:#181818;stroke-width:0.4000000000000001;fill:none;stroke-dasharray:5.0,5.0;" x1="1190" x2="1190" y1="66.0875" y2="967.0438"/><line style="stroke:#181818;stroke-width:0.4000000000000001;fill:none;stroke-dasharray:5.0,5.0;" x1="1332.4" x2="1332.4" y1="66.0875" y2="967.0438"/><line style="stroke:#181818;stroke-width:0.4000000000000001;fill:none;stroke-dasharray:5.0,5.0;" x1="1467.6" x2="1467.6" y1="66.0875" y2="967.0438"/><line style="stroke:#181818;stroke-width:0.4000000000000001;fill:none;stroke-dasharray:5.0,5.0;" x1="1626.4" x2="1626.4" y1="66.0875" y2="967.0438"/><line style="stroke:#181818;stroke-width:0.4000000000000001;fill:none;stroke-dasharray:5.0,5.0;" x1="1799.6" x2="1799.6" y1="66.0875" y2="967.0438"/><line style="stroke:#181818;stroke-width:0.4000000000000001;fill:none;stroke-dasharray:5.0,5.0;" x1="1958" x2="1958" y1="66.0875" y2="967.0438"/><line style="stroke:#181818;stroke-width:0.4000000000000001;fill:none;stroke-dasharray:5.0,5.0;" x1="2115.6" x2="2115.6" y1="66.0875" y2="967.0438"/><text fill="#000000" font-family="sans-serif" font-size="11.2" lengthAdjust="spacing" textLength="23.2" x="24" y="63.6266">User</text><ellipse cx="38" cy="10.8" fill="#E2E2F0" rx="6.4" ry="6.4" style="stroke:#181818;stroke-width:0.4000000000000001;"/><path d="M38,17.2 L38,38.8 M27.6,23.6 L48.4,23.6 M38,38.8 L27.6,50.8 M38,38.8 L48.4,50.8 " fill="none" style="stroke:#181818;stroke-width:0.4000000000000001;"/><text fill="#000000" font-family="sans-serif" font-size="11.2" lengthAdjust="spacing" textLength="23.2" x="24" y="977.8703">User</text><ellipse cx="38" cy="987.1313" fill="#E2E2F0" rx="6.4" ry="6.4" style="stroke:#181818;stroke-width:0.4000000000000001;"/><path d="M38,993.5313 L38,1015.1313 M27.6,999.9313 L48.4,999.9313 M38,1015.1313 L27.6,1027.1313 M38,1015.1313 L48.4,1027.1313 " fill="none" style="stroke:#181818;stroke-width:0.4000000000000001;"/><rect fill="#008000" height="25.2875" rx="2" ry="2" style="stroke:#181818;stroke-width:0.4000000000000001;" width="31.2" x="115.2" y="40"/><text fill="#000000" font-family="sans-serif" font-size="11.2" lengthAdjust="spacing" textLength="20" x="120.8" y="57.2266">App</text><rect fill="#008000" height="25.2875" rx="2" ry="2" style="stroke:#181818;stroke-width:0.4000000000000001;" width="31.2" x="115.2" y="966.2438"/><text fill="#000000" font-family="sans-serif" font-size="11.2" lengthAdjust="spacing" textLength="20" x="120.8" y="983.4703">App</text><rect fill="#ADD8E6" height="25.2875" rx="2" ry="2" style="stroke:#181818;stroke-width:0.4000000000000001;" width="100.8" x="209.2" y="40"/><text fill="#000000" font-family="sans-serif" font-size="11.2" lengthAdjust="spacing" textLength="89.6" x="214.8" y="57.2266">XesParserService</text><rect fill="#ADD8E6" height="25.2875" rx="2" ry="2" style="stroke:#181818;stroke-width:0.4000000000000001;" width="100.8" x="209.2" y="966.2438"/><text fill="#000000" font-family="sans-serif" font-size="11.2" lengthAdjust="spacing" textLength="89.6" x="214.8" y="983.4703">XesParserService</text><rect fill="#ADD8E6" height="25.2875" rx="2" ry="2" style="stroke:#181818;stroke-width:0.4000000000000001;" width="101.6" x="318" y="40"/><text fill="#000000" font-family="sans-serif" font-size="11.2" lengthAdjust="spacing" textLength="90.4" x="323.6" y="57.2266">LogParserService</text><rect fill="#ADD8E6" height="25.2875" rx="2" ry="2" style="stroke:#181818;stroke-width:0.4000000000000001;" width="101.6" x="318" y="966.2438"/><text fill="#000000" font-family="sans-serif" font-size="11.2" lengthAdjust="spacing" textLength="90.4" x="323.6" y="983.4703">LogParserService</text><rect fill="#ADD8E6" height="25.2875" rx="2" ry="2" style="stroke:#181818;stroke-width:0.4000000000000001;" width="120.8" x="427.6" y="40"/><text fill="#000000" font-family="sans-serif" font-size="11.2" lengthAdjust="spacing" textLength="109.6" x="433.2" y="57.2266">EventLogDataService</text><rect fill="#ADD8E6" height="25.2875" rx="2" ry="2" style="stroke:#181818;stroke-width:0.4000000000000001;" width="120.8" x="427.6" y="966.2438"/><text fill="#000000" font-family="sans-serif" font-size="11.2" lengthAdjust="spacing" textLength="109.6" x="433.2" y="983.4703">EventLogDataService</text><rect fill="#ADD8E6" height="25.2875" rx="2" ry="2" style="stroke:#181818;stroke-width:0.4000000000000001;" width="68" x="556.4" y="40"/><text fill="#000000" font-family="sans-serif" font-size="11.2" lengthAdjust="spacing" textLength="56.8" x="562" y="57.2266">LogService</text><rect fill="#ADD8E6" height="25.2875" rx="2" ry="2" style="stroke:#181818;stroke-width:0.4000000000000001;" width="68" x="556.4" y="966.2438"/><text fill="#000000" font-family="sans-serif" font-size="11.2" lengthAdjust="spacing" textLength="56.8" x="562" y="983.4703">LogService</text><rect fill="#ADD8E6" height="25.2875" rx="2" ry="2" style="stroke:#181818;stroke-width:0.4000000000000001;" width="151.2" x="632.4" y="40"/><text fill="#000000" font-family="sans-serif" font-size="11.2" lengthAdjust="spacing" textLength="140" x="638" y="57.2266">TraceCaseSelectionService</text><rect fill="#ADD8E6" height="25.2875" rx="2" ry="2" style="stroke:#181818;stroke-width:0.4000000000000001;" width="151.2" x="632.4" y="966.2438"/><text fill="#000000" font-family="sans-serif" font-size="11.2" lengthAdjust="spacing" textLength="140" x="638" y="983.4703">TraceCaseSelectionService</text><rect fill="#ADD8E6" height="25.2875" rx="2" ry="2" style="stroke:#181818;stroke-width:0.4000000000000001;" width="156.8" x="791.6" y="40"/><text fill="#000000" font-family="sans-serif" font-size="11.2" lengthAdjust="spacing" textLength="145.6" x="797.2" y="57.2266">ValueChainControllerService</text><rect fill="#ADD8E6" height="25.2875" rx="2" ry="2" style="stroke:#181818;stroke-width:0.4000000000000001;" width="156.8" x="791.6" y="966.2438"/><text fill="#000000" font-family="sans-serif" font-size="11.2" lengthAdjust="spacing" textLength="145.6" x="797.2" y="983.4703">ValueChainControllerService</text><rect fill="#ADD8E6" height="25.2875" rx="2" ry="2" style="stroke:#181818;stroke-width:0.4000000000000001;" width="144" x="967.6" y="40"/><text fill="#000000" font-family="sans-serif" font-size="11.2" lengthAdjust="spacing" textLength="132.8" x="973.2" y="57.2266">ValueChainDisplayService</text><rect fill="#ADD8E6" height="25.2875" rx="2" ry="2" style="stroke:#181818;stroke-width:0.4000000000000001;" width="144" x="967.6" y="966.2438"/><text fill="#000000" font-family="sans-serif" font-size="11.2" lengthAdjust="spacing" textLength="132.8" x="973.2" y="983.4703">ValueChainDisplayService</text><rect fill="#ADD8E6" height="25.2875" rx="2" ry="2" style="stroke:#181818;stroke-width:0.4000000000000001;" width="141.6" x="1119.6" y="40"/><text fill="#000000" font-family="sans-serif" font-size="11.2" lengthAdjust="spacing" textLength="130.4" x="1125.2" y="57.2266">ValueChainLayoutService</text><rect fill="#ADD8E6" height="25.2875" rx="2" ry="2" style="stroke:#181818;stroke-width:0.4000000000000001;" width="141.6" x="1119.6" y="966.2438"/><text fill="#000000" font-family="sans-serif" font-size="11.2" lengthAdjust="spacing" textLength="130.4" x="1125.2" y="983.4703">ValueChainLayoutService</text><rect fill="#ADD8E6" height="25.2875" rx="2" ry="2" style="stroke:#181818;stroke-width:0.4000000000000001;" width="126.4" x="1269.2" y="40"/><text fill="#000000" font-family="sans-serif" font-size="11.2" lengthAdjust="spacing" textLength="115.2" x="1274.8" y="57.2266">ValueChainSvgService</text><rect fill="#ADD8E6" height="25.2875" rx="2" ry="2" style="stroke:#181818;stroke-width:0.4000000000000001;" width="126.4" x="1269.2" y="966.2438"/><text fill="#000000" font-family="sans-serif" font-size="11.2" lengthAdjust="spacing" textLength="115.2" x="1274.8" y="983.4703">ValueChainSvgService</text><rect fill="#90EE90" height="25.2875" rx="2" ry="2" style="stroke:#181818;stroke-width:0.4000000000000001;" width="128" x="1403.6" y="40"/><text fill="#000000" font-family="sans-serif" font-size="11.2" lengthAdjust="spacing" textLength="116.8" x="1409.2" y="57.2266">ValueChainComponent</text><rect fill="#90EE90" height="25.2875" rx="2" ry="2" style="stroke:#181818;stroke-width:0.4000000000000001;" width="128" x="1403.6" y="966.2438"/><text fill="#000000" font-family="sans-serif" font-size="11.2" lengthAdjust="spacing" textLength="116.8" x="1409.2" y="983.4703">ValueChainComponent</text><rect fill="#90EE90" height="25.2875" style="stroke:#181818;stroke-width:0.4000000000000001;" width="138.4" x="1559.2" y="36.8"/><rect fill="#90EE90" height="25.2875" style="stroke:#181818;stroke-width:0.4000000000000001;" width="138.4" x="1556" y="40"/><text fill="#000000" font-family="sans-serif" font-size="11.2" lengthAdjust="spacing" textLength="127.2" x="1561.6" y="57.2266">LogCaseViewComponent</text><rect fill="#90EE90" height="25.2875" style="stroke:#181818;stroke-width:0.4000000000000001;" width="138.4" x="1559.2" y="966.2438"/><rect fill="#90EE90" height="25.2875" style="stroke:#181818;stroke-width:0.4000000000000001;" width="138.4" x="1556" y="969.4438"/><text fill="#000000" font-family="sans-serif" font-size="11.2" lengthAdjust="spacing" textLength="127.2" x="1561.6" y="986.6703">LogCaseViewComponent</text><rect fill="#ADD8E6" height="25.2875" rx="2" ry="2" style="stroke:#181818;stroke-width:0.4000000000000001;" width="158.4" x="1720.4" y="40"/><text fill="#000000" font-family="sans-serif" font-size="11.2" lengthAdjust="spacing" textLength="147.2" x="1726" y="57.2266">LogInformationLayoutService</text><rect fill="#ADD8E6" height="25.2875" rx="2" ry="2" style="stroke:#181818;stroke-width:0.4000000000000001;" width="158.4" x="1720.4" y="966.2438"/><text fill="#000000" font-family="sans-serif" font-size="11.2" lengthAdjust="spacing" textLength="147.2" x="1726" y="983.4703">LogInformationLayoutService</text><rect fill="#ADD8E6" height="25.2875" rx="2" ry="2" style="stroke:#181818;stroke-width:0.4000000000000001;" width="143.2" x="1886.8" y="40"/><text fill="#000000" font-family="sans-serif" font-size="11.2" lengthAdjust="spacing" textLength="132" x="1892.4" y="57.2266">LogInformationSvgService</text><rect fill="#ADD8E6" height="25.2875" rx="2" ry="2" style="stroke:#181818;stroke-width:0.4000000000000001;" width="143.2" x="1886.8" y="966.2438"/><text fill="#000000" font-family="sans-serif" font-size="11.2" lengthAdjust="spacing" textLength="132" x="1892.4" y="983.4703">LogInformationSvgService</text><rect fill="#ADD8E6" height="25.2875" rx="2" ry="2" style="stroke:#181818;stroke-width:0.4000000000000001;" width="156" x="2038" y="40"/><text fill="#000000" font-family="sans-serif" font-size="11.2" lengthAdjust="spacing" textLength="144.8" x="2043.6" y="57.2266">DirectlyFollowsGraphService</text><rect fill="#ADD8E6" height="25.2875" rx="2" ry="2" style="stroke:#181818;stroke-width:0.4000000000000001;" width="156" x="2038" y="966.2438"/><text fill="#000000" font-family="sans-serif" font-size="11.2" lengthAdjust="spacing" textLength="144.8" x="2043.6" y="983.4703">DirectlyFollowsGraphService</text><path d="M16,99.9688 L64.8,99.9688 L64.8,106.65 L56.8,114.65 L16,114.65 L16,99.9688 " fill="#EEEEEE" style="stroke:#000000;stroke-width:1.2000000000000002;"/><rect fill="none" height="319.8063" style="stroke:#000000;stroke-width:1.2000000000000002;" width="616.4" x="16" y="99.9688"/><text fill="#000000" font-family="sans-serif" font-size="10.4" font-weight="bold" lengthAdjust="spacing" textLength="12.8" x="28" y="111.5648">alt</text><text fill="#000000" font-family="sans-serif" font-size="8.8" font-weight="bold" lengthAdjust="spacing" textLength="38.4" x="76.8" y="110.7039">[XES file]</text><polygon fill="#181818" points="121.2,129.3313,129.2,132.5313,121.2,135.7313,124.4,132.5313" style="stroke:#181818;stroke-width:0.8000000000000002;"/><line style="stroke:#181818;stroke-width:0.8000000000000002;" x1="38" x2="126" y1="132.5313" y2="132.5313"/><text fill="#000000" font-family="sans-serif" font-size="10.4" lengthAdjust="spacing" textLength="73.6" x="43.6" y="128.6461">imports XES file</text><polygon fill="#181818" points="250,153.6125,258,156.8125,250,160.0125,253.2,156.8125" style="stroke:#181818;stroke-width:0.8000000000000002;"/><line style="stroke:#181818;stroke-width:0.8000000000000002;" x1="130.8" x2="254.8" y1="156.8125" y2="156.8125"/><text fill="#000000" font-family="sans-serif" font-size="10.4" lengthAdjust="spacing" textLength="41.6" x="136.4" y="152.9273">parse file</text><polygon fill="#181818" points="139.6,190.975,131.6,194.175,139.6,197.375,136.4,194.175" style="stroke:#181818;stroke-width:0.8000000000000002;"/><line style="stroke:#181818;stroke-width:0.8000000000000002;" x1="134.8" x2="258.8" y1="194.175" y2="194.175"/><text fill="#000000" font-family="sans-serif" font-size="10.4" lengthAdjust="spacing" textLength="93.6" x="144.4" y="177.2086">XES file contents as</text><text fill="#000000" font-family="sans-serif" font-size="10.4" lengthAdjust="spacing" textLength="109.6" x="144.4" y="190.2898">event log representation</text><polygon fill="#181818" points="478.4,215.2563,486.4,218.4563,478.4,221.6563,481.6,218.4563" style="stroke:#181818;stroke-width:0.8000000000000002;"/><line style="stroke:#181818;stroke-width:0.8000000000000002;" x1="130.8" x2="483.2" y1="218.4563" y2="218.4563"/><text fill="#000000" font-family="sans-serif" font-size="10.4" lengthAdjust="spacing" textLength="180.8" x="136.4" y="214.5711">update event log internal representation</text><polygon fill="#181818" points="580.8,239.5375,588.8,242.7375,580.8,245.9375,584,242.7375" style="stroke:#181818;stroke-width:0.8000000000000002;"/><line style="stroke:#181818;stroke-width:0.8000000000000002;" x1="130.8" x2="585.6" y1="242.7375" y2="242.7375"/><text fill="#000000" font-family="sans-serif" font-size="10.4" lengthAdjust="spacing" textLength="140.8" x="136.4" y="238.8523">generate log string for textarea</text><line style="stroke:#181818;stroke-width:0.8000000000000002;" x1="130.8" x2="164.4" y1="267.0188" y2="267.0188"/><line style="stroke:#181818;stroke-width:0.8000000000000002;" x1="164.4" x2="164.4" y1="267.0188" y2="277.4188"/><line style="stroke:#181818;stroke-width:0.8000000000000002;" x1="131.6" x2="164.4" y1="277.4188" y2="277.4188"/><polygon fill="#181818" points="139.6,274.2188,131.6,277.4188,139.6,280.6188,136.4,277.4188" style="stroke:#181818;stroke-width:0.8000000000000002;"/><text fill="#000000" font-family="sans-serif" font-size="10.4" lengthAdjust="spacing" textLength="72" x="136.4" y="263.1336">update textarea</text><line style="stroke:#000000;stroke-width:0.8000000000000002;stroke-dasharray:2.0,2.0;" x1="16" x2="632.4" y1="284.6188" y2="284.6188"/><text fill="#000000" font-family="sans-serif" font-size="8.8" font-weight="bold" lengthAdjust="spacing" textLength="39.2" x="20" y="293.7539">[Log file]</text><polygon fill="#181818" points="121.2,311.1688,129.2,314.3688,121.2,317.5688,124.4,314.3688" style="stroke:#181818;stroke-width:0.8000000000000002;"/><line style="stroke:#181818;stroke-width:0.8000000000000002;" x1="38" x2="126" y1="314.3688" y2="314.3688"/><text fill="#000000" font-family="sans-serif" font-size="10.4" lengthAdjust="spacing" textLength="67.2" x="43.6" y="310.4836">imports log file</text><polygon fill="#181818" points="359.2,335.45,367.2,338.65,359.2,341.85,362.4,338.65" style="stroke:#181818;stroke-width:0.8000000000000002;"/><line style="stroke:#181818;stroke-width:0.8000000000000002;" x1="130.8" x2="364" y1="338.65" y2="338.65"/><text fill="#000000" font-family="sans-serif" font-size="10.4" lengthAdjust="spacing" textLength="41.6" x="136.4" y="334.7648">parse file</text><polygon fill="#181818" points="139.6,372.8125,131.6,376.0125,139.6,379.2125,136.4,376.0125" style="stroke:#181818;stroke-width:0.8000000000000002;"/><line style="stroke:#181818;stroke-width:0.8000000000000002;" x1="134.8" x2="258.8" y1="376.0125" y2="376.0125"/><text fill="#000000" font-family="sans-serif" font-size="10.4" lengthAdjust="spacing" textLength="70.4" x="144.4" y="359.0461">file contents as</text><text fill="#000000" font-family="sans-serif" font-size="10.4" lengthAdjust="spacing" textLength="109.6" x="144.4" y="372.1273">event log representation</text><polygon fill="#181818" points="478.4,410.175,486.4,413.375,478.4,416.575,481.6,413.375" style="stroke:#181818;stroke-width:0.8000000000000002;"/><line style="stroke:#181818;stroke-width:0.8000000000000002;" x1="130.8" x2="483.2" y1="413.375" y2="413.375"/><text fill="#000000" font-family="sans-serif" font-size="10.4" lengthAdjust="spacing" textLength="112" x="136.4" y="396.4086">update event log internal</text><text fill="#000000" font-family="sans-serif" font-size="10.4" lengthAdjust="spacing" textLength="65.6" x="136.4" y="409.4898">representation</text><path d="M107.2,430.975 L312,430.975 L312,437.6563 L304,445.6563 L107.2,445.6563 L107.2,430.975 " fill="#EEEEEE" style="stroke:#000000;stroke-width:1.2000000000000002;"/><rect fill="none" height="443.225" style="stroke:#000000;stroke-width:1.2000000000000002;" width="1930.8" x="107.2" y="430.975"/><text fill="#000000" font-family="sans-serif" font-size="10.4" font-weight="bold" lengthAdjust="spacing" textLength="168.8" x="119.2" y="442.5711">Update Value-Chain-based Views</text><polygon fill="#181818" points="860.4,460.3375,868.4,463.5375,860.4,466.7375,863.6,463.5375" style="stroke:#181818;stroke-width:0.8000000000000002;"/><line style="stroke:#181818;stroke-width:0.8000000000000002;" x1="130.8" x2="865.2" y1="463.5375" y2="463.5375"/><text fill="#000000" font-family="sans-serif" font-size="10.4" lengthAdjust="spacing" textLength="199.2" x="136.4" y="459.6523">update Value Chain diagram representation</text><polygon fill="#181818" points="1030,497.7,1038,500.9,1030,504.1,1033.2,500.9" style="stroke:#181818;stroke-width:0.8000000000000002;"/><line style="stroke:#181818;stroke-width:0.8000000000000002;" x1="870" x2="1034.8" y1="500.9" y2="500.9"/><text fill="#000000" font-family="sans-serif" font-size="10.4" lengthAdjust="spacing" textLength="150.4" x="875.6" y="483.9336">convert Event Log representation</text><text fill="#000000" font-family="sans-serif" font-size="10.4" lengthAdjust="spacing" textLength="109.6" x="875.6" y="497.0148">to Value Chain Diagram</text><polygon fill="#181818" points="1180.8,535.0625,1188.8,538.2625,1180.8,541.4625,1184,538.2625" style="stroke:#181818;stroke-width:0.8000000000000002;"/><line style="stroke:#181818;stroke-width:0.8000000000000002;" x1="870" x2="1185.6" y1="538.2625" y2="538.2625"/><text fill="#000000" font-family="sans-serif" font-size="10.4" lengthAdjust="spacing" textLength="127.2" x="875.6" y="521.2961">calculate drawing width and</text><text fill="#000000" font-family="sans-serif" font-size="10.4" lengthAdjust="spacing" textLength="153.6" x="875.6" y="534.3773">coordinates for diagram elements</text><polygon fill="#181818" points="716.8,559.3438,708.8,562.5438,716.8,565.7438,713.6,562.5438" style="stroke:#181818;stroke-width:0.8000000000000002;"/><line style="stroke:#181818;stroke-width:0.8000000000000002;" x1="712" x2="869.2" y1="562.5438" y2="562.5438"/><text fill="#000000" font-family="sans-serif" font-size="10.4" lengthAdjust="spacing" textLength="121.6" x="721.6" y="558.6586">get IDs for selected traces</text><polygon fill="#181818" points="1322.8,596.7063,1330.8,599.9063,1322.8,603.1063,1326,599.9063" style="stroke:#181818;stroke-width:0.8000000000000002;"/><line style="stroke:#181818;stroke-width:0.8000000000000002;" x1="870" x2="1327.6" y1="599.9063" y2="599.9063"/><text fill="#000000" font-family="sans-serif" font-size="10.4" lengthAdjust="spacing" textLength="125.6" x="875.6" y="582.9398">generate SVG elements for</text><text fill="#000000" font-family="sans-serif" font-size="10.4" lengthAdjust="spacing" textLength="82.4" x="875.6" y="596.0211">diagram elements</text><polygon fill="#90EE90" points="820,610.3063,920,610.3063,928,626.3063,920,642.3063,820,642.3063,812,626.3063,820,610.3063" style="stroke:#181818;stroke-width:0.4000000000000001;"/><text fill="#000000" font-family="sans-serif" font-size="10.4" lengthAdjust="spacing" textLength="69.6" x="821.6" y="624.3023">Emit new value</text><text fill="#000000" font-family="sans-serif" font-size="10.4" lengthAdjust="spacing" textLength="96.8" x="821.6" y="637.3836">for diagram elements</text><line style="stroke:#181818;stroke-width:0.8000000000000002;" x1="870.8" x2="878.8" y1="664.75" y2="661.55"/><line style="stroke:#181818;stroke-width:0.8000000000000002;" x1="870.8" x2="878.8" y1="664.75" y2="667.95"/><line style="stroke:#181818;stroke-width:0.8000000000000002;stroke-dasharray:2.0,2.0;" x1="870" x2="1466.8" y1="664.75" y2="664.75"/><text fill="#008000" font-family="sans-serif" font-size="10.4" lengthAdjust="spacing" textLength="179.2" x="883.6" y="660.8648">subscribe to diagram elements change</text><line style="stroke:#181818;stroke-width:0.8000000000000002;" x1="1467.6" x2="1501.2" y1="689.0313" y2="689.0313"/><line style="stroke:#181818;stroke-width:0.8000000000000002;" x1="1501.2" x2="1501.2" y1="689.0313" y2="699.4313"/><line style="stroke:#181818;stroke-width:0.8000000000000002;" x1="1468.4" x2="1501.2" y1="699.4313" y2="699.4313"/><polygon fill="#181818" points="1476.4,696.2313,1468.4,699.4313,1476.4,702.6313,1473.2,699.4313" style="stroke:#181818;stroke-width:0.8000000000000002;"/><text fill="#000000" font-family="sans-serif" font-size="10.4" lengthAdjust="spacing" textLength="148" x="1473.2" y="685.1461">update drawing width and height</text><line style="stroke:#181818;stroke-width:0.8000000000000002;" x1="1467.6" x2="1501.2" y1="723.7125" y2="723.7125"/><line style="stroke:#181818;stroke-width:0.8000000000000002;" x1="1501.2" x2="1501.2" y1="723.7125" y2="734.1125"/><line style="stroke:#181818;stroke-width:0.8000000000000002;" x1="1468.4" x2="1501.2" y1="734.1125" y2="734.1125"/><polygon fill="#181818" points="1476.4,730.9125,1468.4,734.1125,1476.4,737.3125,1473.2,734.1125" style="stroke:#181818;stroke-width:0.8000000000000002;"/><text fill="#000000" font-family="sans-serif" font-size="10.4" lengthAdjust="spacing" textLength="144" x="1473.2" y="719.8273">display diagram SVG elements</text><line style="stroke:#181818;stroke-width:0.8000000000000002;" x1="870.8" x2="878.8" y1="758.3938" y2="755.1938"/><line style="stroke:#181818;stroke-width:0.8000000000000002;" x1="870.8" x2="878.8" y1="758.3938" y2="761.5938"/><line style="stroke:#181818;stroke-width:0.8000000000000002;stroke-dasharray:2.0,2.0;" x1="870" x2="1626" y1="758.3938" y2="758.3938"/><text fill="#008000" font-family="sans-serif" font-size="10.4" lengthAdjust="spacing" textLength="179.2" x="883.6" y="754.5086">subscribe to diagram elements change</text><polygon fill="#181818" points="1790,792.5563,1798,795.7563,1790,798.9563,1793.2,795.7563" style="stroke:#181818;stroke-width:0.8000000000000002;"/><line style="stroke:#181818;stroke-width:0.8000000000000002;" x1="1626.8" x2="1794.8" y1="795.7563" y2="795.7563"/><text fill="#000000" font-family="sans-serif" font-size="10.4" lengthAdjust="spacing" textLength="127.2" x="1632.4" y="778.7898">calculate drawing width and</text><text fill="#000000" font-family="sans-serif" font-size="10.4" lengthAdjust="spacing" textLength="153.6" x="1632.4" y="791.8711">coordinates for diagram elements</text><polygon fill="#181818" points="1948.8,829.9188,1956.8,833.1188,1948.8,836.3188,1952,833.1188" style="stroke:#181818;stroke-width:0.8000000000000002;"/><line style="stroke:#181818;stroke-width:0.8000000000000002;" x1="1626.8" x2="1953.6" y1="833.1188" y2="833.1188"/><text fill="#000000" font-family="sans-serif" font-size="10.4" lengthAdjust="spacing" textLength="125.6" x="1632.4" y="816.1523">generate SVG elements for</text><text fill="#000000" font-family="sans-serif" font-size="10.4" lengthAdjust="spacing" textLength="82.4" x="1632.4" y="829.2336">diagram elements</text><line style="stroke:#181818;stroke-width:0.8000000000000002;" x1="1626.8" x2="1660.4" y1="857.4" y2="857.4"/><line style="stroke:#181818;stroke-width:0.8000000000000002;" x1="1660.4" x2="1660.4" y1="857.4" y2="867.8"/><line style="stroke:#181818;stroke-width:0.8000000000000002;" x1="1627.6" x2="1660.4" y1="867.8" y2="867.8"/><polygon fill="#181818" points="1635.6,864.6,1627.6,867.8,1635.6,871,1632.4,867.8" style="stroke:#181818;stroke-width:0.8000000000000002;"/><text fill="#000000" font-family="sans-serif" font-size="10.4" lengthAdjust="spacing" textLength="144" x="1632.4" y="853.5148">display diagram SVG elements</text><path d="M107.2,885.4 L297.6,885.4 L297.6,892.0813 L289.6,900.0813 L107.2,900.0813 L107.2,885.4 " fill="#EEEEEE" style="stroke:#000000;stroke-width:1.2000000000000002;"/><rect fill="none" height="68.0438" style="stroke:#000000;stroke-width:1.2000000000000002;" width="2094.8" x="107.2" y="885.4"/><text fill="#000000" font-family="sans-serif" font-size="10.4" font-weight="bold" lengthAdjust="spacing" textLength="154.4" x="119.2" y="896.9961">Update Directly-Follows-Graph</text><path d="M134.4,904.0813 L134.4,924.8813 L171.2,924.8813 L171.2,912.0813 L163.2,904.0813 L134.4,904.0813 " fill="#FF0000" style="stroke:#181818;stroke-width:0.4000000000000001;"/><path d="M163.2,904.0813 L163.2,912.0813 L171.2,912.0813 L163.2,904.0813 " fill="#FF0000" style="stroke:#181818;stroke-width:0.4000000000000001;"/><text fill="#000000" font-family="sans-serif" font-size="10.4" lengthAdjust="spacing" textLength="20" x="139.2" y="918.8773">WIP</text><polygon fill="#181818" points="2106.4,943.8438,2114.4,947.0438,2106.4,950.2438,2109.6,947.0438" style="stroke:#181818;stroke-width:0.8000000000000002;"/><line style="stroke:#181818;stroke-width:0.8000000000000002;" x1="130.8" x2="2111.2" y1="947.0438" y2="947.0438"/><text fill="#000000" font-family="sans-serif" font-size="10.4" lengthAdjust="spacing" textLength="139.2" x="136.4" y="943.1586">update Directly-Follows-Graph</text><!--MD5=[cec6068ace6a9839d78a6c415ac62a79]
@startuml
actor User
participant App #green
box "Parser Services"
participant XesParserService as XPS #lightblue
participant LogParserService as LPS #lightblue
end box
participant EventLogDataService as ELDS #lightblue
participant LogService as LS #lightblue
participant TraceCaseSelectionService as TCSS #lightblue
box "Value Chain View Services"
participant ValueChainControllerService as VCCS #lightblue
participant ValueChainDisplayService as VCDS #lightblue
participant ValueChainLayoutService as VCLS #lightblue
participant ValueChainSvgService as VCSS #lightblue
end box
participant ValueChainComponent as VCC #lightgreen
collections LogCaseViewComponent as LCV #lightgreen
box "Log Information View Services"
participant LogInformationLayoutService as LILS #lightblue
participant LogInformationSvgService as LISS #lightblue
end box
participant DirectlyFollowsGraphService as DFGS #lightblue
group Read File
alt XES file
User -> App: imports XES file
App -> XPS: parse file
XPS -> App: XES file contents as\nevent log representation
App -> ELDS: update event log internal representation
App -> LS: generate log string for textarea
App -> App: update textarea
else Log file
User -> App: imports log file
App -> LPS: parse file
XPS -> App: file contents as\nevent log representation
App -> ELDS: update event log internal\nrepresentation
end
group Update Value-Chain-based Views
App -> VCCS: update Value Chain diagram representation
VCCS -> VCDS: convert Event Log representation\nto Value Chain Diagram
VCCS -> VCLS: calculate drawing width and\ncoordinates for diagram elements
VCCS -> TCSS: get IDs for selected traces
VCCS -> VCSS: generate SVG elements for\ndiagram elements
hnote over VCCS #lightgreen
    Emit new value
    for diagram elements
end note
VCCS <<- - VCC: <font color=green>subscribe to diagram elements change
VCC -> VCC: update drawing width and height
VCC -> VCC: display diagram SVG elements
VCCS <<- - LCV: <font color=green>subscribe to diagram elements change
LCV -> LILS: calculate drawing width and\ncoordinates for diagram elements
LCV -> LISS: generate SVG elements for\ndiagram elements
LCV -> LCV: display diagram SVG elements
end
group Update Directly-Follows-Graph
note right of App #red: WIP
App -> DFGS: update Directly-Follows-Graph
end

@enduml

PlantUML version 1.2022.6(Tue Jun 21 18:34:49 BST 2022)
(GPL source distribution)
Java Runtime: OpenJDK Runtime Environment
JVM: OpenJDK 64-Bit Server VM
Default Encoding: Cp1252
Language: en
Country: GB
--></g></svg>