<?xml version="1.0" encoding="UTF-8" standalone="no"?><svg xmlns="http://www.w3.org/2000/svg" xmlns:xlink="http://www.w3.org/1999/xlink" contentStyleType="text/css" height="1078.4px" preserveAspectRatio="none" style="width:2206px;height:1078px;background:#FFFFFF;" version="1.1" viewBox="0 0 2206 1078" width="2206.4px" zoomAndPan="magnify"><defs/><g><rect fill="#DDDDDD" height="1068.8938" style="stroke:#181818;stroke-width:0.4000000000000001;" width="216.8" x="206" y="4.8"/><text fill="#000000" font-family="sans-serif" font-size="10.4" font-weight="bold" lengthAdjust="spacing" textLength="79.2" x="274.8" y="15.5961">Parser Services</text><rect fill="#DDDDDD" height="1068.8938" style="stroke:#181818;stroke-width:0.4000000000000001;" width="610.4" x="788.4" y="4.8"/><text fill="#000000" font-family="sans-serif" font-size="10.4" font-weight="bold" lengthAdjust="spacing" textLength="137.6" x="1024.8" y="15.5961">Value Chain View Services</text><rect fill="#DDDDDD" height="1068.8938" style="stroke:#181818;stroke-width:0.4000000000000001;" width="316" x="1717.2" y="4.8"/><text fill="#000000" font-family="sans-serif" font-size="10.4" font-weight="bold" lengthAdjust="spacing" textLength="156" x="1797.2" y="15.5961">Log Information View Services</text><rect height="361.9688" style="stroke:#000000;stroke-width:1.2000000000000002;fill:none;" width="616.4" x="16" y="99.9688"/><rect height="443.225" style="stroke:#000000;stroke-width:1.2000000000000002;fill:none;" width="1930.8" x="107.2" y="473.1375"/><rect height="68.0438" style="stroke:#000000;stroke-width:1.2000000000000002;fill:none;" width="2094.8" x="107.2" y="927.5625"/><line style="stroke:#181818;stroke-width:0.4000000000000001;fill:none;stroke-dasharray:5.0,5.0;" x1="37.6" x2="37.6" y1="66.0875" y2="1009.2063"/><line style="stroke:#181818;stroke-width:0.4000000000000001;fill:none;stroke-dasharray:5.0,5.0;" x1="130.4" x2="130.4" y1="66.0875" y2="1009.2063"/><line style="stroke:#181818;stroke-width:0.4000000000000001;fill:none;stroke-dasharray:5.0,5.0;" x1="259.6" x2="259.6" y1="66.0875" y2="1009.2063"/><line style="stroke:#181818;stroke-width:0.4000000000000001;fill:none;stroke-dasharray:5.0,5.0;" x1="368.4" x2="368.4" y1="66.0875" y2="1009.2063"/><line style="stroke:#181818;stroke-width:0.4000000000000001;fill:none;stroke-dasharray:5.0,5.0;" x1="487.6" x2="487.6" y1="66.0875" y2="1009.2063"/><line style="stroke:#181818;stroke-width:0.4000000000000001;fill:none;stroke-dasharray:5.0,5.0;" x1="590" x2="590" y1="66.0875" y2="1009.2063"/><line style="stroke:#181818;stroke-width:0.4000000000000001;fill:none;stroke-dasharray:5.0,5.0;" x1="707.6" x2="707.6" y1="66.0875" y2="1009.2063"/><line style="stroke:#181818;stroke-width:0.4000000000000001;fill:none;stroke-dasharray:5.0,5.0;" x1="870" x2="870" y1="66.0875" y2="1009.2063"/><line style="stroke:#181818;stroke-width:0.4000000000000001;fill:none;stroke-dasharray:5.0,5.0;" x1="1039.6" x2="1039.6" y1="66.0875" y2="1009.2063"/><line style="stroke:#181818;stroke-width:0.4000000000000001;fill:none;stroke-dasharray:5.0,5.0;" x1="1190" x2="1190" y1="66.0875" y2="1009.2063"/><line style="stroke:#181818;stroke-width:0.4000000000000001;fill:none;stroke-dasharray:5.0,5.0;" x1="1332.4" x2="1332.4" y1="66.0875" y2="1009.2063"/><line style="stroke:#181818;stroke-width:0.4000000000000001;fill:none;stroke-dasharray:5.0,5.0;" x1="1467.6" x2="1467.6" y1="66.0875" y2="1009.2063"/><line style="stroke:#181818;stroke-width:0.4000000000000001;fill:none;stroke-dasharray:5.0,5.0;" x1="1626.4" x2="1626.4" y1="66.0875" y2="1009.2063"/><line style="stroke:#181818;stroke-width:0.4000000000000001;fill:none;stroke-dasharray:5.0,5.0;" x1="1799.6" x2="1799.6" y1="66.0875" y2="1009.2063"/><line style="stroke:#181818;stroke-width:0.4000000000000001;fill:none;stroke-dasharray:5.0,5.0;" x1="1958" x2="1958" y1="66.0875" y2="1009.2063"/><line style="stroke:#181818;stroke-width:0.4000000000000001;fill:none;stroke-dasharray:5.0,5.0;" x1="2115.6" x2="2115.6" y1="66.0875" y2="1009.2063"/><text fill="#000000" font-family="sans-serif" font-size="11.2" lengthAdjust="spacing" textLength="23.2" x="24" y="63.6266">User</text><ellipse cx="38" cy="10.8" fill="#E2E2F0" rx="6.4" ry="6.4" style="stroke:#181818;stroke-width:0.4000000000000001;"/><path d="M38,17.2 L38,38.8 M27.6,23.6 L48.4,23.6 M38,38.8 L27.6,50.8 M38,38.8 L48.4,50.8 " fill="none" style="stroke:#181818;stroke-width:0.4000000000000001;"/><text fill="#000000" font-family="sans-serif" font-size="11.2" lengthAdjust="spacing" textLength="23.2" x="24" y="1020.0328">User</text><ellipse cx="38" cy="1029.2938" fill="#E2E2F0" rx="6.4" ry="6.4" style="stroke:#181818;stroke-width:0.4000000000000001;"/><path d="M38,1035.6938 L38,1057.2938 M27.6,1042.0938 L48.4,1042.0938 M38,1057.2938 L27.6,1069.2938 M38,1057.2938 L48.4,1069.2938 " fill="none" style="stroke:#181818;stroke-width:0.4000000000000001;"/><rect fill="#008000" height="25.2875" rx="2" ry="2" style="stroke:#181818;stroke-width:0.4000000000000001;" width="31.2" x="115.2" y="40"/><text fill="#000000" font-family="sans-serif" font-size="11.2" lengthAdjust="spacing" textLength="20" x="120.8" y="57.2266">App</text><rect fill="#008000" height="25.2875" rx="2" ry="2" style="stroke:#181818;stroke-width:0.4000000000000001;" width="31.2" x="115.2" y="1008.4063"/><text fill="#000000" font-family="sans-serif" font-size="11.2" lengthAdjust="spacing" textLength="20" x="120.8" y="1025.6328">App</text><rect fill="#ADD8E6" height="25.2875" rx="2" ry="2" style="stroke:#181818;stroke-width:0.4000000000000001;" width="100.8" x="209.2" y="40"/><text fill="#000000" font-family="sans-serif" font-size="11.2" lengthAdjust="spacing" textLength="89.6" x="214.8" y="57.2266">XesParserService</text><rect fill="#ADD8E6" height="25.2875" rx="2" ry="2" style="stroke:#181818;stroke-width:0.4000000000000001;" width="100.8" x="209.2" y="1008.4063"/><text fill="#000000" font-family="sans-serif" font-size="11.2" lengthAdjust="spacing" textLength="89.6" x="214.8" y="1025.6328">XesParserService</text><rect fill="#ADD8E6" height="25.2875" rx="2" ry="2" style="stroke:#181818;stroke-width:0.4000000000000001;" width="101.6" x="318" y="40"/><text fill="#000000" font-family="sans-serif" font-size="11.2" lengthAdjust="spacing" textLength="90.4" x="323.6" y="57.2266">LogParserService</text><rect fill="#ADD8E6" height="25.2875" rx="2" ry="2" style="stroke:#181818;stroke-width:0.4000000000000001;" width="101.6" x="318" y="1008.4063"/><text fill="#000000" font-family="sans-serif" font-size="11.2" lengthAdjust="spacing" textLength="90.4" x="323.6" y="1025.6328">LogParserService</text><rect fill="#ADD8E6" height="25.2875" rx="2" ry="2" style="stroke:#181818;stroke-width:0.4000000000000001;" width="120.8" x="427.6" y="40"/><text fill="#000000" font-family="sans-serif" font-size="11.2" lengthAdjust="spacing" textLength="109.6" x="433.2" y="57.2266">EventLogDataService</text><rect fill="#ADD8E6" height="25.2875" rx="2" ry="2" style="stroke:#181818;stroke-width:0.4000000000000001;" width="120.8" x="427.6" y="1008.4063"/><text fill="#000000" font-family="sans-serif" font-size="11.2" lengthAdjust="spacing" textLength="109.6" x="433.2" y="1025.6328">EventLogDataService</text><rect fill="#ADD8E6" height="25.2875" rx="2" ry="2" style="stroke:#181818;stroke-width:0.4000000000000001;" width="68" x="556.4" y="40"/><text fill="#000000" font-family="sans-serif" font-size="11.2" lengthAdjust="spacing" textLength="56.8" x="562" y="57.2266">LogService</text><rect fill="#ADD8E6" height="25.2875" rx="2" ry="2" style="stroke:#181818;stroke-width:0.4000000000000001;" width="68" x="556.4" y="1008.4063"/><text fill="#000000" font-family="sans-serif" font-size="11.2" lengthAdjust="spacing" textLength="56.8" x="562" y="1025.6328">LogService</text><rect fill="#ADD8E6" height="25.2875" rx="2" ry="2" style="stroke:#181818;stroke-width:0.4000000000000001;" width="151.2" x="632.4" y="40"/><text fill="#000000" font-family="sans-serif" font-size="11.2" lengthAdjust="spacing" textLength="140" x="638" y="57.2266">TraceCaseSelectionService</text><rect fill="#ADD8E6" height="25.2875" rx="2" ry="2" style="stroke:#181818;stroke-width:0.4000000000000001;" width="151.2" x="632.4" y="1008.4063"/><text fill="#000000" font-family="sans-serif" font-size="11.2" lengthAdjust="spacing" textLength="140" x="638" y="1025.6328">TraceCaseSelectionService</text><rect fill="#ADD8E6" height="25.2875" rx="2" ry="2" style="stroke:#181818;stroke-width:0.4000000000000001;" width="156.8" x="791.6" y="40"/><text fill="#000000" font-family="sans-serif" font-size="11.2" lengthAdjust="spacing" textLength="145.6" x="797.2" y="57.2266">ValueChainControllerService</text><rect fill="#ADD8E6" height="25.2875" rx="2" ry="2" style="stroke:#181818;stroke-width:0.4000000000000001;" width="156.8" x="791.6" y="1008.4063"/><text fill="#000000" font-family="sans-serif" font-size="11.2" lengthAdjust="spacing" textLength="145.6" x="797.2" y="1025.6328">ValueChainControllerService</text><rect fill="#ADD8E6" height="25.2875" rx="2" ry="2" style="stroke:#181818;stroke-width:0.4000000000000001;" width="144" x="967.6" y="40"/><text fill="#000000" font-family="sans-serif" font-size="11.2" lengthAdjust="spacing" textLength="132.8" x="973.2" y="57.2266">ValueChainDisplayService</text><rect fill="#ADD8E6" height="25.2875" rx="2" ry="2" style="stroke:#181818;stroke-width:0.4000000000000001;" width="144" x="967.6" y="1008.4063"/><text fill="#000000" font-family="sans-serif" font-size="11.2" lengthAdjust="spacing" textLength="132.8" x="973.2" y="1025.6328">ValueChainDisplayService</text><rect fill="#ADD8E6" height="25.2875" rx="2" ry="2" style="stroke:#181818;stroke-width:0.4000000000000001;" width="141.6" x="1119.6" y="40"/><text fill="#000000" font-family="sans-serif" font-size="11.2" lengthAdjust="spacing" textLength="130.4" x="1125.2" y="57.2266">ValueChainLayoutService</text><rect fill="#ADD8E6" height="25.2875" rx="2" ry="2" style="stroke:#181818;stroke-width:0.4000000000000001;" width="141.6" x="1119.6" y="1008.4063"/><text fill="#000000" font-family="sans-serif" font-size="11.2" lengthAdjust="spacing" textLength="130.4" x="1125.2" y="1025.6328">ValueChainLayoutService</text><rect fill="#ADD8E6" height="25.2875" rx="2" ry="2" style="stroke:#181818;stroke-width:0.4000000000000001;" width="126.4" x="1269.2" y="40"/><text fill="#000000" font-family="sans-serif" font-size="11.2" lengthAdjust="spacing" textLength="115.2" x="1274.8" y="57.2266">ValueChainSvgService</text><rect fill="#ADD8E6" height="25.2875" rx="2" ry="2" style="stroke:#181818;stroke-width:0.4000000000000001;" width="126.4" x="1269.2" y="1008.4063"/><text fill="#000000" font-family="sans-serif" font-size="11.2" lengthAdjust="spacing" textLength="115.2" x="1274.8" y="1025.6328">ValueChainSvgService</text><rect fill="#90EE90" height="25.2875" rx="2" ry="2" style="stroke:#181818;stroke-width:0.4000000000000001;" width="128" x="1403.6" y="40"/><text fill="#000000" font-family="sans-serif" font-size="11.2" lengthAdjust="spacing" textLength="116.8" x="1409.2" y="57.2266">ValueChainComponent</text><rect fill="#90EE90" height="25.2875" rx="2" ry="2" style="stroke:#181818;stroke-width:0.4000000000000001;" width="128" x="1403.6" y="1008.4063"/><text fill="#000000" font-family="sans-serif" font-size="11.2" lengthAdjust="spacing" textLength="116.8" x="1409.2" y="1025.6328">ValueChainComponent</text><rect fill="#90EE90" height="25.2875" style="stroke:#181818;stroke-width:0.4000000000000001;" width="138.4" x="1559.2" y="36.8"/><rect fill="#90EE90" height="25.2875" style="stroke:#181818;stroke-width:0.4000000000000001;" width="138.4" x="1556" y="40"/><text fill="#000000" font-family="sans-serif" font-size="11.2" lengthAdjust="spacing" textLength="127.2" x="1561.6" y="57.2266">LogCaseViewComponent</text><rect fill="#90EE90" height="25.2875" style="stroke:#181818;stroke-width:0.4000000000000001;" width="138.4" x="1559.2" y="1008.4063"/><rect fill="#90EE90" height="25.2875" style="stroke:#181818;stroke-width:0.4000000000000001;" width="138.4" x="1556" y="1011.6063"/><text fill="#000000" font-family="sans-serif" font-size="11.2" lengthAdjust="spacing" textLength="127.2" x="1561.6" y="1028.8328">LogCaseViewComponent</text><rect fill="#ADD8E6" height="25.2875" rx="2" ry="2" style="stroke:#181818;stroke-width:0.4000000000000001;" width="158.4" x="1720.4" y="40"/><text fill="#000000" font-family="sans-serif" font-size="11.2" lengthAdjust="spacing" textLength="147.2" x="1726" y="57.2266">LogInformationLayoutService</text><rect fill="#ADD8E6" height="25.2875" rx="2" ry="2" style="stroke:#181818;stroke-width:0.4000000000000001;" width="158.4" x="1720.4" y="1008.4063"/><text fill="#000000" font-family="sans-serif" font-size="11.2" lengthAdjust="spacing" textLength="147.2" x="1726" y="1025.6328">LogInformationLayoutService</text><rect fill="#ADD8E6" height="25.2875" rx="2" ry="2" style="stroke:#181818;stroke-width:0.4000000000000001;" width="143.2" x="1886.8" y="40"/><text fill="#000000" font-family="sans-serif" font-size="11.2" lengthAdjust="spacing" textLength="132" x="1892.4" y="57.2266">LogInformationSvgService</text><rect fill="#ADD8E6" height="25.2875" rx="2" ry="2" style="stroke:#181818;stroke-width:0.4000000000000001;" width="143.2" x="1886.8" y="1008.4063"/><text fill="#000000" font-family="sans-serif" font-size="11.2" lengthAdjust="spacing" textLength="132" x="1892.4" y="1025.6328">LogInformationSvgService</text><rect fill="#ADD8E6" height="25.2875" rx="2" ry="2" style="stroke:#181818;stroke-width:0.4000000000000001;" width="156" x="2038" y="40"/><text fill="#000000" font-family="sans-serif" font-size="11.2" lengthAdjust="spacing" textLength="144.8" x="2043.6" y="57.2266">DirectlyFollowsGraphService</text><rect fill="#ADD8E6" height="25.2875" rx="2" ry="2" style="stroke:#181818;stroke-width:0.4000000000000001;" width="156" x="2038" y="1008.4063"/><text fill="#000000" font-family="sans-serif" font-size="11.2" lengthAdjust="spacing" textLength="144.8" x="2043.6" y="1025.6328">DirectlyFollowsGraphService</text><path d="M16,99.9688 L64.8,99.9688 L64.8,106.65 L56.8,114.65 L16,114.65 L16,99.9688 " fill="#EEEEEE" style="stroke:#000000;stroke-width:1.2000000000000002;"/><rect fill="none" height="361.9688" style="stroke:#000000;stroke-width:1.2000000000000002;" width="616.4" x="16" y="99.9688"/><text fill="#000000" font-family="sans-serif" font-size="10.4" font-weight="bold" lengthAdjust="spacing" textLength="12.8" x="28" y="111.5648">alt</text><text fill="#000000" font-family="sans-serif" font-size="8.8" font-weight="bold" lengthAdjust="spacing" textLength="38.4" x="76.8" y="110.7039">[XES file]</text><polygon fill="#181818" points="121.2,129.3313,129.2,132.5313,121.2,135.7313,124.4,132.5313" style="stroke:#181818;stroke-width:0.8000000000000002;"/><line style="stroke:#181818;stroke-width:0.8000000000000002;" x1="38" x2="126" y1="132.5313" y2="132.5313"/><text fill="#000000" font-family="sans-serif" font-size="10.4" lengthAdjust="spacing" textLength="73.6" x="43.6" y="128.6461">imports XES file</text><polygon fill="#181818" points="250,153.6125,258,156.8125,250,160.0125,253.2,156.8125" style="stroke:#181818;stroke-width:0.8000000000000002;"/><line style="stroke:#181818;stroke-width:0.8000000000000002;" x1="130.8" x2="254.8" y1="156.8125" y2="156.8125"/><text fill="#000000" font-family="sans-serif" font-size="10.4" lengthAdjust="spacing" textLength="41.6" x="136.4" y="152.9273">parse file</text><polygon fill="#181818" points="139.6,190.975,131.6,194.175,139.6,197.375,136.4,194.175" style="stroke:#181818;stroke-width:0.8000000000000002;"/><line style="stroke:#181818;stroke-width:0.8000000000000002;" x1="134.8" x2="258.8" y1="194.175" y2="194.175"/><text fill="#000000" font-family="sans-serif" font-size="10.4" lengthAdjust="spacing" textLength="93.6" x="144.4" y="177.2086">XES file contents as</text><text fill="#000000" font-family="sans-serif" font-size="10.4" lengthAdjust="spacing" textLength="109.6" x="144.4" y="190.2898">event log representation</text><polygon fill="#181818" points="478.4,215.2563,486.4,218.4563,478.4,221.6563,481.6,218.4563" style="stroke:#181818;stroke-width:0.8000000000000002;"/><line style="stroke:#181818;stroke-width:0.8000000000000002;" x1="130.8" x2="483.2" y1="218.4563" y2="218.4563"/><text fill="#000000" font-family="sans-serif" font-size="10.4" lengthAdjust="spacing" textLength="180.8" x="136.4" y="214.5711">update event log internal representation</text><polygon fill="#181818" points="580.8,239.5375,588.8,242.7375,580.8,245.9375,584,242.7375" style="stroke:#181818;stroke-width:0.8000000000000002;"/><line style="stroke:#181818;stroke-width:0.8000000000000002;" x1="130.8" x2="585.6" y1="242.7375" y2="242.7375"/><text fill="#000000" font-family="sans-serif" font-size="10.4" lengthAdjust="spacing" textLength="140.8" x="136.4" y="238.8523">generate log string for textarea</text><line style="stroke:#181818;stroke-width:0.8000000000000002;" x1="130.8" x2="164.4" y1="267.0188" y2="267.0188"/><line style="stroke:#181818;stroke-width:0.8000000000000002;" x1="164.4" x2="164.4" y1="267.0188" y2="277.4188"/><line style="stroke:#181818;stroke-width:0.8000000000000002;" x1="131.6" x2="164.4" y1="277.4188" y2="277.4188"/><polygon fill="#181818" points="139.6,274.2188,131.6,277.4188,139.6,280.6188,136.4,277.4188" style="stroke:#181818;stroke-width:0.8000000000000002;"/><text fill="#000000" font-family="sans-serif" font-size="10.4" lengthAdjust="spacing" textLength="72" x="136.4" y="263.1336">update textarea</text><path d="M28.8,287.8188 L28.8,321.4188 L232.8,321.4188 L232.8,295.8188 L224.8,287.8188 L28.8,287.8188 " fill="#FEFFDD" style="stroke:#181818;stroke-width:0.4000000000000001;"/><path d="M224.8,287.8188 L224.8,295.8188 L232.8,295.8188 L224.8,287.8188 " fill="#FEFFDD" style="stroke:#181818;stroke-width:0.4000000000000001;"/><text fill="#000000" font-family="sans-serif" font-size="10.4" lengthAdjust="spacing" textLength="168.8" x="33.6" y="302.6148">Update Textarea additionally triggers</text><text fill="#000000" font-family="sans-serif" font-size="10.4" lengthAdjust="spacing" textLength="187.2" x="33.6" y="315.6961">all operations triggered by log file import:</text><line style="stroke:#000000;stroke-width:0.8000000000000002;stroke-dasharray:2.0,2.0;" x1="16" x2="632.4" y1="326.7813" y2="326.7813"/><text fill="#000000" font-family="sans-serif" font-size="8.8" font-weight="bold" lengthAdjust="spacing" textLength="39.2" x="20" y="335.9164">[Log file]</text><polygon fill="#181818" points="121.2,353.3313,129.2,356.5313,121.2,359.7313,124.4,356.5313" style="stroke:#181818;stroke-width:0.8000000000000002;"/><line style="stroke:#181818;stroke-width:0.8000000000000002;" x1="38" x2="126" y1="356.5313" y2="356.5313"/><text fill="#000000" font-family="sans-serif" font-size="10.4" lengthAdjust="spacing" textLength="67.2" x="43.6" y="352.6461">imports log file</text><polygon fill="#181818" points="359.2,377.6125,367.2,380.8125,359.2,384.0125,362.4,380.8125" style="stroke:#181818;stroke-width:0.8000000000000002;"/><line style="stroke:#181818;stroke-width:0.8000000000000002;" x1="130.8" x2="364" y1="380.8125" y2="380.8125"/><text fill="#000000" font-family="sans-serif" font-size="10.4" lengthAdjust="spacing" textLength="41.6" x="136.4" y="376.9273">parse file</text><polygon fill="#181818" points="139.6,414.975,131.6,418.175,139.6,421.375,136.4,418.175" style="stroke:#181818;stroke-width:0.8000000000000002;"/><line style="stroke:#181818;stroke-width:0.8000000000000002;" x1="134.8" x2="258.8" y1="418.175" y2="418.175"/><text fill="#000000" font-family="sans-serif" font-size="10.4" lengthAdjust="spacing" textLength="70.4" x="144.4" y="401.2086">file contents as</text><text fill="#000000" font-family="sans-serif" font-size="10.4" lengthAdjust="spacing" textLength="109.6" x="144.4" y="414.2898">event log representation</text><polygon fill="#181818" points="478.4,452.3375,486.4,455.5375,478.4,458.7375,481.6,455.5375" style="stroke:#181818;stroke-width:0.8000000000000002;"/><line style="stroke:#181818;stroke-width:0.8000000000000002;" x1="130.8" x2="483.2" y1="455.5375" y2="455.5375"/><text fill="#000000" font-family="sans-serif" font-size="10.4" lengthAdjust="spacing" textLength="112" x="136.4" y="438.5711">update event log internal</text><text fill="#000000" font-family="sans-serif" font-size="10.4" lengthAdjust="spacing" textLength="65.6" x="136.4" y="451.6523">representation</text><path d="M107.2,473.1375 L312,473.1375 L312,479.8188 L304,487.8188 L107.2,487.8188 L107.2,473.1375 " fill="#EEEEEE" style="stroke:#000000;stroke-width:1.2000000000000002;"/><rect fill="none" height="443.225" style="stroke:#000000;stroke-width:1.2000000000000002;" width="1930.8" x="107.2" y="473.1375"/><text fill="#000000" font-family="sans-serif" font-size="10.4" font-weight="bold" lengthAdjust="spacing" textLength="168.8" x="119.2" y="484.7336">Update Value-Chain-based Views</text><polygon fill="#181818" points="860.4,502.5,868.4,505.7,860.4,508.9,863.6,505.7" style="stroke:#181818;stroke-width:0.8000000000000002;"/><line style="stroke:#181818;stroke-width:0.8000000000000002;" x1="130.8" x2="865.2" y1="505.7" y2="505.7"/><text fill="#000000" font-family="sans-serif" font-size="10.4" lengthAdjust="spacing" textLength="199.2" x="136.4" y="501.8148">update Value Chain diagram representation</text><polygon fill="#181818" points="1030,539.8625,1038,543.0625,1030,546.2625,1033.2,543.0625" style="stroke:#181818;stroke-width:0.8000000000000002;"/><line style="stroke:#181818;stroke-width:0.8000000000000002;" x1="870" x2="1034.8" y1="543.0625" y2="543.0625"/><text fill="#000000" font-family="sans-serif" font-size="10.4" lengthAdjust="spacing" textLength="150.4" x="875.6" y="526.0961">convert Event Log representation</text><text fill="#000000" font-family="sans-serif" font-size="10.4" lengthAdjust="spacing" textLength="109.6" x="875.6" y="539.1773">to Value Chain Diagram</text><polygon fill="#181818" points="1180.8,577.225,1188.8,580.425,1180.8,583.625,1184,580.425" style="stroke:#181818;stroke-width:0.8000000000000002;"/><line style="stroke:#181818;stroke-width:0.8000000000000002;" x1="870" x2="1185.6" y1="580.425" y2="580.425"/><text fill="#000000" font-family="sans-serif" font-size="10.4" lengthAdjust="spacing" textLength="127.2" x="875.6" y="563.4586">calculate drawing width and</text><text fill="#000000" font-family="sans-serif" font-size="10.4" lengthAdjust="spacing" textLength="153.6" x="875.6" y="576.5398">coordinates for diagram elements</text><polygon fill="#181818" points="716.8,601.5063,708.8,604.7063,716.8,607.9063,713.6,604.7063" style="stroke:#181818;stroke-width:0.8000000000000002;"/><line style="stroke:#181818;stroke-width:0.8000000000000002;" x1="712" x2="869.2" y1="604.7063" y2="604.7063"/><text fill="#000000" font-family="sans-serif" font-size="10.4" lengthAdjust="spacing" textLength="121.6" x="721.6" y="600.8211">get IDs for selected traces</text><polygon fill="#181818" points="1322.8,638.8688,1330.8,642.0688,1322.8,645.2688,1326,642.0688" style="stroke:#181818;stroke-width:0.8000000000000002;"/><line style="stroke:#181818;stroke-width:0.8000000000000002;" x1="870" x2="1327.6" y1="642.0688" y2="642.0688"/><text fill="#000000" font-family="sans-serif" font-size="10.4" lengthAdjust="spacing" textLength="125.6" x="875.6" y="625.1023">generate SVG elements for</text><text fill="#000000" font-family="sans-serif" font-size="10.4" lengthAdjust="spacing" textLength="82.4" x="875.6" y="638.1836">diagram elements</text><polygon fill="#90EE90" points="820,652.4688,920,652.4688,928,668.4688,920,684.4688,820,684.4688,812,668.4688,820,652.4688" style="stroke:#181818;stroke-width:0.4000000000000001;"/><text fill="#000000" font-family="sans-serif" font-size="10.4" lengthAdjust="spacing" textLength="69.6" x="821.6" y="666.4648">Emit new value</text><text fill="#000000" font-family="sans-serif" font-size="10.4" lengthAdjust="spacing" textLength="96.8" x="821.6" y="679.5461">for diagram elements</text><line style="stroke:#181818;stroke-width:0.8000000000000002;" x1="870.8" x2="878.8" y1="706.9125" y2="703.7125"/><line style="stroke:#181818;stroke-width:0.8000000000000002;" x1="870.8" x2="878.8" y1="706.9125" y2="710.1125"/><line style="stroke:#181818;stroke-width:0.8000000000000002;stroke-dasharray:2.0,2.0;" x1="870" x2="1466.8" y1="706.9125" y2="706.9125"/><text fill="#008000" font-family="sans-serif" font-size="10.4" lengthAdjust="spacing" textLength="179.2" x="883.6" y="703.0273">subscribe to diagram elements change</text><line style="stroke:#181818;stroke-width:0.8000000000000002;" x1="1467.6" x2="1501.2" y1="731.1938" y2="731.1938"/><line style="stroke:#181818;stroke-width:0.8000000000000002;" x1="1501.2" x2="1501.2" y1="731.1938" y2="741.5938"/><line style="stroke:#181818;stroke-width:0.8000000000000002;" x1="1468.4" x2="1501.2" y1="741.5938" y2="741.5938"/><polygon fill="#181818" points="1476.4,738.3938,1468.4,741.5938,1476.4,744.7938,1473.2,741.5938" style="stroke:#181818;stroke-width:0.8000000000000002;"/><text fill="#000000" font-family="sans-serif" font-size="10.4" lengthAdjust="spacing" textLength="148" x="1473.2" y="727.3086">update drawing width and height</text><line style="stroke:#181818;stroke-width:0.8000000000000002;" x1="1467.6" x2="1501.2" y1="765.875" y2="765.875"/><line style="stroke:#181818;stroke-width:0.8000000000000002;" x1="1501.2" x2="1501.2" y1="765.875" y2="776.275"/><line style="stroke:#181818;stroke-width:0.8000000000000002;" x1="1468.4" x2="1501.2" y1="776.275" y2="776.275"/><polygon fill="#181818" points="1476.4,773.075,1468.4,776.275,1476.4,779.475,1473.2,776.275" style="stroke:#181818;stroke-width:0.8000000000000002;"/><text fill="#000000" font-family="sans-serif" font-size="10.4" lengthAdjust="spacing" textLength="144" x="1473.2" y="761.9898">display diagram SVG elements</text><line style="stroke:#181818;stroke-width:0.8000000000000002;" x1="870.8" x2="878.8" y1="800.5563" y2="797.3563"/><line style="stroke:#181818;stroke-width:0.8000000000000002;" x1="870.8" x2="878.8" y1="800.5563" y2="803.7563"/><line style="stroke:#181818;stroke-width:0.8000000000000002;stroke-dasharray:2.0,2.0;" x1="870" x2="1626" y1="800.5563" y2="800.5563"/><text fill="#008000" font-family="sans-serif" font-size="10.4" lengthAdjust="spacing" textLength="179.2" x="883.6" y="796.6711">subscribe to diagram elements change</text><polygon fill="#181818" points="1790,834.7188,1798,837.9188,1790,841.1188,1793.2,837.9188" style="stroke:#181818;stroke-width:0.8000000000000002;"/><line style="stroke:#181818;stroke-width:0.8000000000000002;" x1="1626.8" x2="1794.8" y1="837.9188" y2="837.9188"/><text fill="#000000" font-family="sans-serif" font-size="10.4" lengthAdjust="spacing" textLength="127.2" x="1632.4" y="820.9523">calculate drawing width and</text><text fill="#000000" font-family="sans-serif" font-size="10.4" lengthAdjust="spacing" textLength="153.6" x="1632.4" y="834.0336">coordinates for diagram elements</text><polygon fill="#181818" points="1948.8,872.0813,1956.8,875.2813,1948.8,878.4813,1952,875.2813" style="stroke:#181818;stroke-width:0.8000000000000002;"/><line style="stroke:#181818;stroke-width:0.8000000000000002;" x1="1626.8" x2="1953.6" y1="875.2813" y2="875.2813"/><text fill="#000000" font-family="sans-serif" font-size="10.4" lengthAdjust="spacing" textLength="125.6" x="1632.4" y="858.3148">generate SVG elements for</text><text fill="#000000" font-family="sans-serif" font-size="10.4" lengthAdjust="spacing" textLength="82.4" x="1632.4" y="871.3961">diagram elements</text><line style="stroke:#181818;stroke-width:0.8000000000000002;" x1="1626.8" x2="1660.4" y1="899.5625" y2="899.5625"/><line style="stroke:#181818;stroke-width:0.8000000000000002;" x1="1660.4" x2="1660.4" y1="899.5625" y2="909.9625"/><line style="stroke:#181818;stroke-width:0.8000000000000002;" x1="1627.6" x2="1660.4" y1="909.9625" y2="909.9625"/><polygon fill="#181818" points="1635.6,906.7625,1627.6,909.9625,1635.6,913.1625,1632.4,909.9625" style="stroke:#181818;stroke-width:0.8000000000000002;"/><text fill="#000000" font-family="sans-serif" font-size="10.4" lengthAdjust="spacing" textLength="144" x="1632.4" y="895.6773">display diagram SVG elements</text><path d="M107.2,927.5625 L297.6,927.5625 L297.6,934.2438 L289.6,942.2438 L107.2,942.2438 L107.2,927.5625 " fill="#EEEEEE" style="stroke:#000000;stroke-width:1.2000000000000002;"/><rect fill="none" height="68.0438" style="stroke:#000000;stroke-width:1.2000000000000002;" width="2094.8" x="107.2" y="927.5625"/><text fill="#000000" font-family="sans-serif" font-size="10.4" font-weight="bold" lengthAdjust="spacing" textLength="154.4" x="119.2" y="939.1586">Update Directly-Follows-Graph</text><path d="M134.4,946.2438 L134.4,967.0438 L171.2,967.0438 L171.2,954.2438 L163.2,946.2438 L134.4,946.2438 " fill="#FF0000" style="stroke:#181818;stroke-width:0.4000000000000001;"/><path d="M163.2,946.2438 L163.2,954.2438 L171.2,954.2438 L163.2,946.2438 " fill="#FF0000" style="stroke:#181818;stroke-width:0.4000000000000001;"/><text fill="#000000" font-family="sans-serif" font-size="10.4" lengthAdjust="spacing" textLength="20" x="139.2" y="961.0398">WIP</text><polygon fill="#181818" points="2106.4,986.0063,2114.4,989.2063,2106.4,992.4063,2109.6,989.2063" style="stroke:#181818;stroke-width:0.8000000000000002;"/><line style="stroke:#181818;stroke-width:0.8000000000000002;" x1="130.8" x2="2111.2" y1="989.2063" y2="989.2063"/><text fill="#000000" font-family="sans-serif" font-size="10.4" lengthAdjust="spacing" textLength="139.2" x="136.4" y="985.3211">update Directly-Follows-Graph</text><!--MD5=[f55401b75deb9382f87feb8236fe1108]
@startuml
actor User
participant App #green
box "Parser Services"
participant XesParserService as XPS #lightblue
participant LogParserService as LPS #lightblue
end box
participant EventLogDataService as ELDS #lightblue
participant LogService as LS #lightblue
participant TraceCaseSelectionService as TCSS #lightblue
box "Value Chain View Services"
participant ValueChainControllerService as VCCS #lightblue
participant ValueChainDisplayService as VCDS #lightblue
participant ValueChainLayoutService as VCLS #lightblue
participant ValueChainSvgService as VCSS #lightblue
end box
participant ValueChainComponent as VCC #lightgreen
collections LogCaseViewComponent as LCV #lightgreen
box "Log Information View Services"
participant LogInformationLayoutService as LILS #lightblue
participant LogInformationSvgService as LISS #lightblue
end box
participant DirectlyFollowsGraphService as DFGS #lightblue
group Read File
alt XES file
User -> App: imports XES file
App -> XPS: parse file
XPS -> App: XES file contents as\nevent log representation
App -> ELDS: update event log internal representation
App -> LS: generate log string for textarea
App -> App: update textarea
note over App: Update Textarea additionally triggers\nall operations triggered by log file import:
else Log file
User -> App: imports log file
App -> LPS: parse file
XPS -> App: file contents as\nevent log representation
App -> ELDS: update event log internal\nrepresentation
end
group Update Value-Chain-based Views
App -> VCCS: update Value Chain diagram representation
VCCS -> VCDS: convert Event Log representation\nto Value Chain Diagram
VCCS -> VCLS: calculate drawing width and\ncoordinates for diagram elements
VCCS -> TCSS: get IDs for selected traces
VCCS -> VCSS: generate SVG elements for\ndiagram elements
hnote over VCCS #lightgreen
    Emit new value
    for diagram elements
end note
VCCS <<- - VCC: <font color=green>subscribe to diagram elements change
VCC -> VCC: update drawing width and height
VCC -> VCC: display diagram SVG elements
VCCS <<- - LCV: <font color=green>subscribe to diagram elements change
LCV -> LILS: calculate drawing width and\ncoordinates for diagram elements
LCV -> LISS: generate SVG elements for\ndiagram elements
LCV -> LCV: display diagram SVG elements
end
group Update Directly-Follows-Graph
note right of App #red: WIP
App -> DFGS: update Directly-Follows-Graph
end

@enduml

PlantUML version 1.2022.6(Tue Jun 21 18:34:49 BST 2022)
(GPL source distribution)
Java Runtime: OpenJDK Runtime Environment
JVM: OpenJDK 64-Bit Server VM
Default Encoding: Cp1252
Language: en
Country: GB
--></g></svg>